<?xml version="1.0"?>
<svg xmlns:rdf="http://www.w3.org/1999/02/22-rdf-syntax-ns#" xmlns="http://www.w3.org/2000/svg" xmlns:cc="http://web.resource.org/cc/" xmlns:dc="http://purl.org/dc/elements/1.1/" xmlns:svg="http://www.w3.org/2000/svg" id="svg2" viewBox="0 0 327.74 310.82" version="1.0">
  <g id="layer1" transform="translate(-193.17 -274.16)">
    <g id="g2214" transform="matrix(.93836 0 0 .93836 22.009 26.48)">
      <path id="path4183" fill="#d45500" d="m327.06 274.16c-31.25 0-57.7 21.36-66.4 50.75-18.85 1.17-28.21 17.82-28.16 38.93 0.05 19.61 8.26 36.42 24.47 39.69-10.48 7.38-22.37 16.9-34.53 27.85-33.32 30-31.63 40.58-26.28 46.84s16.39 7.88 49.72-22.13c3.97-3.58 7.73-7.2 11.28-10.78v65.25c-4.94 5.8-9.96 11.98-14.94 18.53-28.8 37.86-23.45 47.6-15.25 52.19 8.2 4.6 21.48 3.17 50.28-34.69 9.31-12.24 16.81-24.18 22.41-34.93h56.81c5.69 11.21 13.47 23.85 23.31 36.78 28.8 37.86 42.09 39.28 50.28 34.68 8.2-4.59 13.56-14.32-15.25-52.18-5.67-7.46-11.38-14.45-16.97-20.91v-10.19c41.92-6.8 64.42-10.01 83.07-20 11.66-6.24 22.41-16.67 30.06-29.59s12.18-28.74 8.81-44.94c-3.09-14.88-12.46-24.74-18.9-32.19-3.23-3.72-5.78-6.91-7.07-9.28-1.29-2.36-1.48-3.45-1.22-5.09 0.85-5.3 6.23-14.42 11.88-21.31s10.94-11.66 10.94-11.66c3.4-2.98 4.61-7.75 3.06-12s-5.54-7.1-10.06-7.19c-2.85-0.05-5.61 1-7.69 2.94 0 0-6.43 5.76-13.19 14-6.75 8.24-14.49 18.8-16.56 31.78-1.13 7.08 0.8 13.83 3.62 19 2.83 5.18 6.37 9.25 9.72 13.13 6.7 7.75 12.39 14.42 14.03 22.34 1.98 9.48-0.63 19.89-6.22 29.31-5.58 9.43-14.15 17.48-21.56 21.44-13.2 7.07-33.22 10.65-72.72 17.09v-41.15c7.23 1.54 14.91 2.97 22.91 4.22 44.3 6.92 51.45-1.06 52.94-9.16 1.48-8.1-4.23-17.67-48.53-24.59-9.58-1.5-18.77-2.4-27.32-2.85v-0.31h-3.15c17.01-2.66 25.64-19.85 25.69-39.94 0.04-20.63-8.89-36.95-26.88-38.78-8.66-29.45-35.13-50.9-66.44-50.9z"/>
      <path id="rect3258" d="m292.12 311.12c-18.87 0-34.22 15.53-34.5 34.82 0 0.11 0.01 0.23 0 0.34v58.22h139.5v-58.56h-0.21c-0.29-19.27-15.98-34.82-35.29-34.82-18.36 0.01-33.45 14.06-35.12 32.04-1.63-17.97-16.41-32.04-34.38-32.04z" fill="#f39e64"/>
      <path id="path3262" d="m283.12 340.65c0.44-3.61 2.86-7.33 7.35-9.16 3.46-1.47 8.04-1.1 11.11 0.73 4.36 2.51 6.22 6.76 5.88 10.7-0.31 3.69-2.63 7.53-7.14 9.49-3.44 1.56-8.12 1.27-11.27-0.54-4.12-2.28-6-6.15-6.02-9.81"/>
      <path id="path4150" d="m347.89 341.37c0.45-3.61 2.86-7.33 7.36-9.17 3.46-1.46 8.04-1.09 11.11 0.73 4.36 2.52 6.21 6.77 5.87 10.7-0.3 3.69-2.62 7.54-7.13 9.5-3.44 1.56-8.12 1.27-11.27-0.55-4.12-2.28-6.01-6.14-6.02-9.8"/>
    </g>
  </g>
  <metadata>
    <rdf:RDF>
      <cc:Work>
        <dc:format>image/svg+xml</dc:format>
        <dc:type rdf:resource="http://purl.org/dc/dcmitype/StillImage"/>
        <cc:license rdf:resource="http://creativecommons.org/licenses/publicdomain/"/>
        <dc:publisher>
          <cc:Agent rdf:about="http://openclipart.org/">
            <dc:title>Openclipart</dc:title>
          </cc:Agent>
        </dc:publisher>
        <dc:title>Cheeky Monkey</dc:title>
        <dc:date>2007-01-12T17:10:03</dc:date>
        <dc:description>Simple cartoon cheeky monkey (naive style)</dc:description>
        <dc:source>http://openclipart.org/detail/2876/cheeky-monkey-by-rachelps</dc:source>
        <dc:creator>
          <cc:Agent>
            <dc:title>rachelps</dc:title>
          </cc:Agent>
        </dc:creator>
        <dc:subject>
          <rdf:Bag>
            <rdf:li>animal</rdf:li>
            <rdf:li>ape</rdf:li>
            <rdf:li>cartoon</rdf:li>
            <rdf:li>clip art</rdf:li>
            <rdf:li>clipart</rdf:li>
            <rdf:li>icon</rdf:li>
            <rdf:li>image</rdf:li>
            <rdf:li>mammal</rdf:li>
            <rdf:li>media</rdf:li>
            <rdf:li>monkey</rdf:li>
            <rdf:li>nature</rdf:li>
            <rdf:li>public domain</rdf:li>
            <rdf:li>svg</rdf:li>
          </rdf:Bag>
        </dc:subject>
      </cc:Work>
      <cc:License rdf:about="http://creativecommons.org/licenses/publicdomain/">
        <cc:permits rdf:resource="http://creativecommons.org/ns#Reproduction"/>
        <cc:permits rdf:resource="http://creativecommons.org/ns#Distribution"/>
        <cc:permits rdf:resource="http://creativecommons.org/ns#DerivativeWorks"/>
      </cc:License>
    </rdf:RDF>
  </metadata>
</svg>
